<svg width="22" height="25" viewBox="0 0 22 25" fill="none" xmlns="http://www.w3.org/2000/svg">
<path d="M14.5817 0.178223H7.58166V2.51156H14.5817V0.178223ZM9.915 15.3449H12.2483V8.34489H9.915V15.3449ZM19.2833 7.62156L20.94 5.96489C20.4383 5.36989 19.89 4.80989 19.295 4.31989L17.6383 5.97656C15.7802 4.48127 13.4667 3.66619 11.0817 3.66656C5.28333 3.66656 0.581665 8.36822 0.581665 14.1666C0.581665 19.9649 5.27166 24.6666 11.0817 24.6666C16.8917 24.6666 21.5817 19.9649 21.5817 14.1666C21.5817 11.7049 20.7183 9.42989 19.2833 7.62156ZM11.0817 22.3449C6.56666 22.3449 2.915 18.6932 2.915 14.1782C2.915 9.66322 6.56666 6.01156 11.0817 6.01156C15.5967 6.01156 19.2483 9.66322 19.2483 14.1782C19.2483 18.6932 15.5967 22.3449 11.0817 22.3449Z" fill="white"/>
</svg>
