<svg width="28" height="28" viewBox="0 0 28 28" fill="none" xmlns="http://www.w3.org/2000/svg">
<g clip-path="url(#clip0_303_78)">
<path d="M27.999 14.0855C27.999 6.30505 21.7305 -0.00195312 13.999 -0.00195312C6.26404 -0.000203125 -0.00445557 6.30505 -0.00445557 14.0873C-0.00445557 21.117 5.11604 26.9445 11.808 28.0015V18.1578H8.25554V14.0873H11.8115V10.981C11.8115 7.4513 13.9028 5.5018 17.1 5.5018C18.633 5.5018 20.2343 5.77655 20.2343 5.77655V9.24155H18.4685C16.7308 9.24155 16.1883 10.3283 16.1883 11.443V14.0855H20.0698L19.4503 18.156H16.1865V27.9998C22.8785 26.9428 27.999 21.1153 27.999 14.0855Z" fill="white"/>
</g>
<defs>
<clipPath id="clip0_303_78">
<path d="M0 14C0 6.26801 6.26801 0 14 0H28V28H14C6.26801 28 0 21.732 0 14Z" fill="white"/>
</clipPath>
</defs>
</svg>
