<svg width="78" height="86" viewBox="0 0 78 86" fill="none" xmlns="http://www.w3.org/2000/svg">
<path d="M75.7965 6.49009H70.8037V2.33381C70.8037 1.55697 70.0588 0.927612 69.1394 0.927612H2.62425C1.70484 0.927612 0.959961 1.55697 0.959961 2.33381V78.9145C0.959961 79.6913 1.70484 80.3207 2.62425 80.3207H7.61713V84.477C7.61713 85.2538 8.362 85.8832 9.28142 85.8832H75.799C76.7184 85.8832 77.4633 85.2538 77.4633 84.477V7.89629C77.4608 7.11945 76.716 6.49009 75.7965 6.49009ZM70.8037 78.9124V9.30041H74.1323V83.0687H10.9433V80.3165H69.1394C70.0588 80.3186 70.8037 79.6893 70.8037 78.9124ZM4.28609 3.73793H67.4775V7.89629V77.5083H9.27896H4.28609V3.73793Z" fill="#7B2CBF"/>
<path d="M13.9621 48.2897H27.9795C28.8989 48.2897 29.6438 47.6604 29.6438 46.8835V37.0754C29.6438 36.2986 28.8989 35.6693 27.9795 35.6693C27.0601 35.6693 26.3152 36.2986 26.3152 37.0754V45.4773H15.6239V41.562C15.6239 40.7852 14.8791 40.1558 13.9596 40.1558C13.0402 40.1558 12.2953 40.7852 12.2953 41.562V46.8835C12.2978 47.6604 13.0427 48.2897 13.9621 48.2897Z" fill="#DDE345"/>
<path d="M58.8635 60.015C57.3 60.015 55.8324 60.5986 54.618 61.0826C53.3495 61.5873 52.5186 61.8802 51.8376 61.8802C51.3165 61.8802 50.8838 61.7099 50.4093 61.3298C49.1802 60.3514 47.9338 60.015 46.7464 60.0129C45.1829 60.0129 43.7153 60.5965 42.5033 61.0805C41.2373 61.5852 40.4039 61.8781 39.723 61.8781C39.2018 61.8781 38.7691 61.7078 38.2947 61.3277C37.9726 61.0722 37.5645 60.9455 37.154 60.9455C36.7115 60.9455 36.269 61.093 35.942 61.3858C35.3127 61.9508 35.3447 62.8398 36.0133 63.3736C37.2425 64.3519 38.4864 64.6884 39.6763 64.6884C41.2398 64.6884 42.7098 64.1048 43.9243 63.6208C45.1903 63.1161 46.0212 62.8232 46.7022 62.8232C47.2233 62.8232 47.656 62.9935 48.1305 63.3736C49.3596 64.3519 50.6035 64.6905 51.7934 64.6905C53.3569 64.6905 54.827 64.1048 56.0414 63.6229C57.3074 63.1181 58.1359 62.8253 58.8193 62.8253C59.3405 62.8253 59.7731 62.9956 60.25 63.3736C60.5721 63.6291 60.9826 63.7558 61.3907 63.7558C61.8332 63.7558 62.2757 63.6083 62.6027 63.3134C63.232 62.7484 63.2 61.8594 62.5314 61.3256C61.2973 60.3535 60.0534 60.015 58.8635 60.015Z" fill="#C77DFF"/>
<path d="M13.9621 27.77H27.9795C28.8989 27.77 29.6438 27.1406 29.6438 26.3638V16.5557C29.6438 15.7789 28.8989 15.1495 27.9795 15.1495C27.0601 15.1495 26.3152 15.7789 26.3152 16.5557V24.9597H15.6239V21.0423C15.6239 20.2654 14.8791 19.6361 13.9596 19.6361C13.0402 19.6361 12.2953 20.2654 12.2953 21.0423V26.3638C12.2978 27.1406 13.0427 27.77 13.9621 27.77Z" fill="#DDE345"/>
<path d="M39.6738 23.6532C41.2373 23.6532 42.7074 23.0675 43.9218 22.5856C45.1878 22.0809 46.0188 21.788 46.7022 21.788C47.2233 21.788 47.656 21.9583 48.1305 22.3363C49.3596 23.3147 50.6036 23.6532 51.7934 23.6532C53.3569 23.6532 54.827 23.0675 56.0414 22.5856C57.3074 22.0809 58.1384 21.788 58.8218 21.788C59.3429 21.788 59.7756 21.9583 60.2501 22.3363C60.5696 22.5918 60.9802 22.7185 61.3907 22.7185C61.8332 22.7185 62.2757 22.5711 62.6027 22.2782C63.232 21.7132 63.2001 20.8242 62.5314 20.2904C61.3022 19.3121 60.0559 18.9735 58.8685 18.9735C57.305 18.9735 55.8373 19.5593 54.6229 20.0411C53.3569 20.5459 52.526 20.8388 51.845 20.8388C51.3239 20.8388 50.8912 20.6684 50.4167 20.2883C49.1876 19.31 47.9412 18.9714 46.7538 18.9714C45.1903 18.9714 43.7202 19.5572 42.5083 20.0391C41.2422 20.5438 40.4113 20.8367 39.7279 20.8367C39.2067 20.8367 38.7741 20.6664 38.2996 20.2862C37.98 20.0308 37.5695 19.9041 37.1614 19.9041C36.7189 19.9041 36.2764 20.0515 35.9494 20.3465C35.3201 20.9114 35.3521 21.8004 36.0207 22.3343C37.2401 23.3147 38.484 23.6532 39.6738 23.6532Z" fill="#C77DFF"/>
<path d="M28.8572 8.73547C28.6187 8.73547 28.3778 8.77909 28.1492 8.87049C23.2178 10.8375 20.9856 15.2742 20.0146 18.2486L15.2159 13.598C14.8865 13.2802 14.4243 13.1161 13.9597 13.1161C13.5713 13.1161 13.1829 13.2303 12.8682 13.463C12.1749 13.9739 12.1037 14.8608 12.7059 15.4466L19.7147 22.2408C20.0367 22.5524 20.4964 22.7227 20.9684 22.7227C21.1356 22.7227 21.3052 22.7019 21.4699 22.6583C22.0992 22.49 22.554 22.0206 22.6229 21.464C22.6327 21.3871 23.6455 13.7766 29.5677 11.417C30.3986 11.0847 30.755 10.2476 30.3642 9.54554C30.079 9.03458 29.4816 8.73547 28.8572 8.73547Z" fill="#DDE345"/>
<path d="M28.8571 29.2573C28.6187 29.2573 28.3778 29.3009 28.1491 29.3923C23.2177 31.3593 20.9856 35.796 20.0145 38.7704L15.2158 34.1198C14.8864 33.802 14.4243 33.6379 13.9596 33.6379C13.5712 33.6379 13.1828 33.7521 12.8681 33.9827C12.1749 34.4936 12.1036 35.3806 12.7059 35.9663L19.7146 42.7605C20.0366 43.0721 20.4963 43.2424 20.9683 43.2424C21.1355 43.2424 21.3051 43.2216 21.4698 43.178C22.0992 43.0098 22.554 42.5403 22.6228 41.9837C22.6326 41.9068 23.6455 34.2963 29.5676 31.9367C30.3985 31.6044 30.755 30.7673 30.3641 30.0653C30.0789 29.5543 29.4791 29.2573 28.8571 29.2573Z" fill="#DDE345"/>
<path d="M58.8635 39.4953C57.3 39.4953 55.8324 40.081 54.618 40.5629C53.352 41.0677 52.5211 41.3605 51.8401 41.3605C51.3189 41.3605 50.8863 41.1902 50.4093 40.8101C49.1802 39.8318 47.9338 39.4932 46.7464 39.4932C45.1829 39.4932 43.7128 40.079 42.5009 40.5609C41.2348 41.0656 40.4039 41.3585 39.723 41.3585C39.2018 41.3585 38.7691 41.1881 38.2947 40.808C37.9726 40.5525 37.5645 40.4258 37.154 40.4258C36.7115 40.4258 36.2715 40.5733 35.942 40.8683C35.3127 41.4332 35.3447 42.3222 36.0133 42.8561C37.2425 43.8344 38.4864 44.1709 39.6738 44.1709C41.2373 44.1709 42.7074 43.5851 43.9218 43.1032C45.1878 42.5985 46.0188 42.3056 46.7022 42.3056C47.2233 42.3056 47.656 42.4759 48.1305 42.854C49.3596 43.8323 50.6035 44.1709 51.7934 44.1709C53.3569 44.1709 54.827 43.5851 56.0414 43.1032C57.3074 42.5985 58.1408 42.3056 58.8218 42.3056C59.3429 42.3056 59.7756 42.4759 60.25 42.854C60.5696 43.1095 60.9802 43.2362 61.3883 43.2362C61.8308 43.2362 62.2733 43.0887 62.6002 42.7937C63.2295 42.2288 63.1976 41.3398 62.5289 40.806C61.2973 39.8318 60.0534 39.4953 58.8635 39.4953Z" fill="#C77DFF"/>
<path d="M28.8571 49.7769C28.6187 49.7769 28.3778 49.8205 28.1491 49.9119C23.2177 51.8769 20.9856 56.3156 20.0145 59.29L15.2158 54.6394C14.8864 54.3216 14.4243 54.1575 13.9596 54.1575C13.5712 54.1575 13.1828 54.2718 12.8681 54.5023C12.1749 55.0133 12.1036 55.9002 12.7059 56.486L19.7146 63.2802C20.0366 63.5917 20.4963 63.762 20.9683 63.762C21.1355 63.762 21.3051 63.7413 21.4698 63.6977C22.0992 63.5294 22.554 63.06 22.6228 62.5033C22.6326 62.4265 23.6455 54.816 29.5676 52.4564C30.3985 52.124 30.755 51.287 30.3641 50.5849C30.0789 50.0739 29.4791 49.7769 28.8571 49.7769Z" fill="#DDE345"/>
<path d="M27.9795 56.189C27.0601 56.189 26.3152 56.8183 26.3152 57.5952V65.9991H15.6239V62.0817C15.6239 61.3049 14.8791 60.6755 13.9596 60.6755C13.0402 60.6755 12.2953 61.3049 12.2953 62.0817V67.4032C12.2953 68.1801 13.0402 68.8094 13.9596 68.8094H27.9771C28.8965 68.8094 29.6413 68.1801 29.6413 67.4032V57.5952C29.6413 56.8183 28.8965 56.189 27.9795 56.189Z" fill="#DDE345"/>
</svg>
