<svg width="96" height="90" viewBox="0 0 96 90" fill="none" xmlns="http://www.w3.org/2000/svg">
<path d="M38.4338 22.8294H37.2046V17.9773C37.2046 17.2898 36.5433 16.7311 35.7296 16.7311H34.6086V13.8231C34.6086 13.1356 33.9473 12.5769 33.1336 12.5769H30.4467V7.31348C30.4491 7.31348 30.4491 7.31348 30.4516 7.31348C33.0378 7.31348 35.5649 7.6562 37.9618 8.33541C37.9741 8.33957 37.9839 8.34164 37.9962 8.34372L45.7768 10.3647C45.9194 10.4021 46.0645 10.4208 46.2095 10.4208C46.6323 10.4208 47.0453 10.2671 47.328 9.98671C48.245 9.08524 48.6285 7.96984 48.4122 6.85028C48.186 5.68087 47.2985 4.62986 45.9833 3.96726C41.991 1.96078 38.1241 0.606514 35.0978 0.151628L35.0438 0.14332C34.5619 0.0477735 34.0678 0 33.5688 0H13.3268C12.9188 0 11.6798 -1.98088e-07 10.8882 0.753988C10.1064 1.49759 10.2392 2.42813 10.3547 3.24859C10.399 3.56638 10.4457 3.89249 10.4457 4.21236C10.4457 6.99153 16.4071 8.42473 18.9491 8.42473C19.0154 8.42473 19.0793 8.42057 19.1457 8.41434L19.3793 8.38734V12.5789H16.6923C15.8786 12.5789 15.2173 13.1377 15.2173 13.8252V16.7331H14.0963C13.2826 16.7331 12.6213 17.2919 12.6213 17.9794V22.8315H11.3921C8.40034 22.8315 5.50443 24.3249 3.23538 27.0376C1.26134 29.3952 0.0838013 32.3259 0.0838013 34.8787V82.112C0.0838013 86.2351 4.05401 89.5896 8.9338 89.5896H40.8921C45.7719 89.5896 49.7421 86.2351 49.7421 82.112V34.8787C49.7421 32.3259 48.5646 29.3952 46.5905 27.0376C44.3215 24.3229 41.4231 22.8294 38.4338 22.8294ZM46.7921 82.1099C46.7921 84.8579 44.1445 87.095 40.8921 87.095H8.9338C5.68143 87.095 3.0338 84.8579 3.0338 82.1099V34.8766C3.0338 30.7037 7.08759 25.322 11.3921 25.322H12.6213H14.0963H15.5713H34.2546H35.7296H37.2046H38.4338C42.7383 25.322 46.7921 30.7037 46.7921 34.8766V82.1099ZM15.5713 19.2236H16.6923C17.506 19.2236 18.1673 18.6648 18.1673 17.9773V15.0694H19.3793H20.8543H28.9717H30.4467H31.6586V17.9773C31.6586 18.6648 32.3199 19.2236 33.1336 19.2236H34.2546V22.8294H15.5713V19.2236ZM13.3957 4.17497C13.3932 3.72217 13.3342 3.31298 13.2826 2.95156C13.2629 2.80824 13.2383 2.63792 13.2236 2.49252C13.2556 2.49252 13.2875 2.49045 13.3244 2.49045H33.5663C33.8441 2.49045 34.1194 2.51745 34.3849 2.57145C34.4193 2.57768 34.4833 2.59015 34.5791 2.60469C36.1353 2.8394 39.4884 3.60585 44.4739 6.11083C45.0492 6.39955 45.413 6.80459 45.4991 7.25324C45.5285 7.39864 45.5261 7.54404 45.4917 7.68528L38.8763 5.96544C36.182 5.20522 33.3451 4.82095 30.4467 4.82095C30.4442 4.82095 30.4442 4.82095 30.4418 4.82095C29.9501 4.82095 29.4584 4.83549 28.9668 4.85834C28.2563 4.89158 27.5483 4.9435 26.8477 5.02451L20.8469 5.70372L19.3719 5.86989L18.8507 5.92805C16.8078 5.89689 13.7276 4.82511 13.3957 4.17497ZM22.3293 8.05085L27.2459 7.49418C27.3295 7.4838 27.4131 7.47757 27.4967 7.46926V12.5769H22.3293V8.05085Z" fill="#7B2CBF"/>
<path d="M11.9895 30.1491C12.1198 30.118 12.2476 30.0993 12.3755 30.0993H13.8505V29.175V27.6068H12.6213H12.3755C8.6683 27.6068 5.9838 31.8253 5.9838 34.6689V46.5915H8.93379V40.3975V34.6689C8.93379 32.9678 10.4727 30.523 11.9895 30.1491Z" fill="#9263CB"/>
<path d="M24.913 39.3237C16.1687 39.3237 9.05426 45.3348 9.05426 52.7231V63.9415C9.05426 71.3298 16.1687 77.3409 24.913 77.3409C33.6573 77.3409 40.7717 71.3298 40.7717 63.9415V52.7231C40.7717 45.3328 33.6573 39.3237 24.913 39.3237Z" fill="#C77DFF"/>
<path d="M95.0541 24.9481L95.1353 23.7891C95.1599 23.4463 95.0148 23.1098 94.737 22.8606C94.4592 22.6113 94.0708 22.468 93.6627 22.468H88.365H82.7576H77.4599H72.1425H66.8448H61.2373H55.9421C55.5364 22.468 55.148 22.6093 54.8678 22.8606C54.5875 23.1119 54.4449 23.4463 54.4695 23.7891L54.5506 24.9481C54.4818 25.1163 54.4523 25.297 54.472 25.4777L54.7965 28.4335L54.9661 30.8117C54.9784 30.98 55.03 31.1378 55.1111 31.2812L59.7844 73.7122C59.7844 73.7226 59.782 73.7309 59.782 73.7413V81.5429V83.3853V84.187C59.782 87.1656 62.6484 89.5875 66.1736 89.5875H83.4287C86.9539 89.5875 89.8204 87.1656 89.8204 84.187V83.3853V81.5429V73.7413C89.8204 73.7309 89.8179 73.7226 89.8179 73.7122L94.4912 31.2812C94.5723 31.1378 94.6239 30.98 94.6362 30.8117L94.8059 28.4335L95.1304 25.4777C95.1525 25.295 95.123 25.1163 95.0541 24.9481ZM86.8728 84.187C86.8728 84.3387 86.8556 84.4861 86.8286 84.6315C86.5754 86.0253 85.1495 87.095 83.4311 87.095H66.1761C64.4577 87.095 63.0344 86.0232 62.7787 84.6315C62.7516 84.4861 62.7344 84.3387 62.7344 84.187V83.3853V82.7892H68.632V83.271C68.632 83.3105 68.6369 83.3458 68.6394 83.3853C68.6566 83.8256 68.7672 84.2452 68.9639 84.6315C69.6276 85.9505 71.228 86.8831 73.0914 86.8831H76.5159C78.3793 86.8831 79.9796 85.9505 80.6434 84.6315C80.8376 84.2452 80.9507 83.8256 80.9679 83.3853C80.9704 83.3479 80.9753 83.3105 80.9753 83.271C80.9753 83.2544 80.9753 83.2378 80.9753 83.2233L80.9556 82.7892H86.8753V83.3853V84.187H86.8728ZM78.0154 83.3853C77.9392 83.9482 77.2951 84.3906 76.5159 84.3906H73.0914C72.3121 84.3906 71.668 83.9502 71.5894 83.3853C71.5844 83.3479 71.582 83.3105 71.582 83.271V82.8556H78.0056L78.0253 83.2918C78.0228 83.3209 78.0204 83.3541 78.0154 83.3853ZM62.732 80.2945V77.5839H86.8704V80.2945H62.732ZM86.9908 72.493L86.8532 73.7392L86.7155 74.9855L86.7032 75.0914H62.8992L62.8869 74.9855L62.7492 73.7392L62.6115 72.493L58.1496 31.9832H61.5938H67.0537H72.2113H77.3886H82.5461H88.0061H91.4502L86.9908 72.493ZM91.9812 26.6077L91.8657 28.2424L91.7772 29.4907H91.728H89.5499L89.6974 26.6077L89.7614 25.3614L89.781 24.9605H92.0992L92.0697 25.3614L91.9812 26.6077ZM57.626 26.6077L57.5375 25.3614L57.508 24.9605H59.8262L59.8459 25.3614L59.9098 26.6077L60.0573 29.4907H57.8792H57.8301L57.7416 28.2424L57.626 26.6077ZM86.8064 25.3614L86.7425 26.6077L86.595 29.4907H84.0605L84.1465 26.6077L84.1834 25.3614L84.1957 24.9605H86.8261L86.8064 25.3614ZM81.2334 25.3614L81.1965 26.6077L81.1105 29.4907H78.8783L78.9078 26.6077L78.9201 25.3614L78.925 24.9605H81.2457L81.2334 25.3614ZM73.647 26.6077L73.6347 25.3614L73.6298 24.9605H75.9726L75.9676 25.3614L75.9554 26.6077L75.9259 29.4907H73.674L73.647 26.6077ZM70.6847 25.3614L70.697 26.6077L70.7265 29.4907H68.4943L68.4083 26.6077L68.3714 25.3614L68.3591 24.9605H70.6798L70.6847 25.3614ZM65.4214 25.3614L65.4583 26.6077L65.5443 29.4907H63.0098L62.8623 26.6077L62.7984 25.3614L62.7787 24.9605H65.4091L65.4214 25.3614Z" fill="#7B2CBF"/>
<path d="M74.8024 39.2946C68.7008 39.2946 63.7399 43.4883 63.7399 48.6416V59.2369C63.7399 64.3922 68.7032 68.5838 74.8024 68.5838C80.904 68.5838 85.8649 64.3902 85.8649 59.2369V48.6416C85.8649 43.4883 80.904 39.2946 74.8024 39.2946Z" fill="#DDE345"/>
</svg>
