<svg width="100" height="86" viewBox="0 0 100 86" fill="none" xmlns="http://www.w3.org/2000/svg">
<path d="M51.7648 13.6282C45.3903 13.6282 40.2068 18.4439 40.2068 24.3614C40.2068 30.279 45.3903 35.0947 51.7648 35.0947C58.1392 35.0947 63.3227 30.279 63.3227 24.3614C63.3227 18.4418 58.137 13.6282 51.7648 13.6282ZM51.7648 31.9401C47.2648 31.9401 43.6039 28.5404 43.6039 24.3614C43.6039 20.1825 47.2648 16.7828 51.7648 16.7828C56.2648 16.7828 59.9257 20.1825 59.9257 24.3614C59.9257 28.5383 56.2648 31.9401 51.7648 31.9401Z" fill="#C77DFF"/>
<path d="M71.0213 53.3501L63.8664 37.4303L64.3152 36.7076C64.4934 36.4206 64.7506 36.1819 65.0596 36.0164L66.5664 35.2099C68.2423 34.3113 69.2822 32.6355 69.2822 30.8404V29.2253C69.2822 28.8944 69.3769 28.5676 69.5551 28.2785L70.4235 26.8814C71.3912 25.325 71.3912 23.3916 70.4235 21.8352L69.5551 20.436C69.3769 20.1511 69.2822 19.8243 69.2822 19.4933V17.8783C69.2822 16.0811 68.2401 14.4074 66.5664 13.5088L65.0596 12.7023C64.7506 12.5368 64.4934 12.298 64.3152 12.011L63.4468 10.6139C62.4791 9.05752 60.6769 8.08976 58.7415 8.08976H57.0047C56.6483 8.08976 56.2942 8.00179 55.9874 7.8363L54.4806 7.02984C53.6438 6.57948 52.7054 6.35535 51.7671 6.35535C50.8265 6.35535 49.8881 6.57948 49.049 7.02984L47.5445 7.8363C47.2355 8.00179 46.8813 8.08976 46.5249 8.08976H44.7881C42.8528 8.08976 41.0505 9.05752 40.0828 10.6139L39.2121 12.0131C39.0339 12.3001 38.7768 12.5389 38.4678 12.7044L36.9633 13.5109C35.2873 14.4095 34.2475 16.0832 34.2475 17.8804V19.4954C34.2475 19.8264 34.1527 20.1532 33.9745 20.4401L33.1061 21.8373C32.1384 23.3937 32.1384 25.3271 33.1061 26.8814L33.9745 28.2827C34.1527 28.5676 34.2475 28.8944 34.2475 29.2274V30.8424C34.2475 32.6397 35.2873 34.3134 36.9655 35.2141L38.4678 36.0185C38.7768 36.186 39.0362 36.4248 39.2144 36.7118L39.6633 37.4345L32.5084 53.3542C32.2715 53.8842 32.3595 54.4896 32.7407 54.9378C33.0632 55.3191 33.5527 55.5411 34.0648 55.5411C34.1572 55.5411 34.252 55.5348 34.3445 55.5181L39.4016 54.7619L41.4926 57.7531C41.8061 58.2035 42.3452 58.4716 42.9182 58.4716C42.9475 58.4716 42.9768 58.4716 43.0061 58.4695C43.6129 58.4402 44.1543 58.1134 44.4317 57.6107L52.8791 42.2314C53.434 42.1245 53.9776 41.9611 54.4806 41.693L55.9874 40.8866C56.2964 40.7211 56.6483 40.6331 57.0047 40.6331H58.7415C59.6641 40.6331 60.5551 40.4069 61.3423 40.0089L66.7107 51.955L63.5731 51.4858C63.4806 51.4711 63.3882 51.4648 63.2957 51.4648C62.7318 51.4648 62.1927 51.7329 61.8769 52.1854L60.7851 53.748L56.4069 45.7777C56.1069 45.231 55.5092 44.9168 54.8911 44.9168C54.6317 44.9168 54.3678 44.9712 54.122 45.0885C53.2874 45.4844 52.9558 46.4333 53.3799 47.2105L59.0934 57.6149C59.3686 58.1176 59.9122 58.4444 60.6069 58.4758C61.1799 58.4758 61.7167 58.2077 62.0325 57.7573L64.1235 54.7661L69.1807 55.5223C69.2731 55.5369 69.3656 55.5432 69.4581 55.5432C69.9724 55.5432 70.4619 55.3233 70.7844 54.942C71.1701 54.4854 71.2581 53.8779 71.0213 53.3501ZM42.7422 53.7418L41.6505 52.1791C41.3347 51.7287 40.8001 51.4585 40.2339 51.4585C40.1415 51.4585 40.049 51.4648 39.9542 51.4816L36.8166 51.9508L42.1851 40.0047C42.9723 40.4048 43.861 40.6289 44.7858 40.6289H46.5227C46.8791 40.6289 47.231 40.7169 47.5422 40.8824L49.049 41.6888C49.1302 41.7328 49.225 41.7475 49.3084 41.7873L42.7422 53.7418ZM61.3739 35.1324L60.5032 36.5296C60.1423 37.1119 59.4656 37.4743 58.7415 37.4743H57.0047C56.0505 37.4743 55.1122 37.7089 54.2866 38.1509L52.7821 38.9573C52.4686 39.1249 52.1167 39.2108 51.7648 39.2108C51.4129 39.2108 51.061 39.127 50.7475 38.9573L49.243 38.1509C48.4174 37.7089 47.4791 37.4743 46.5249 37.4743H44.7881C44.0618 37.4743 43.3873 37.1119 43.0242 36.5296L42.1558 35.1324C41.6798 34.3678 40.9941 33.7289 40.1663 33.2849L38.664 32.4805C38.0347 32.1433 37.6445 31.5148 37.6445 30.8424V29.2274C37.6445 28.3414 37.3918 27.47 36.9159 26.7054L36.0475 25.304C35.6843 24.7217 35.6843 23.997 36.0475 23.4146L36.9159 22.0175C37.3918 21.2508 37.6445 20.3794 37.6445 19.4954V17.8804C37.6445 17.2059 38.0347 16.5796 38.6618 16.2424L40.1663 15.4359C40.9918 14.9939 41.6798 14.355 42.1558 13.5905L43.0264 12.1933C43.3896 11.611 44.064 11.2465 44.7904 11.2465H46.5272C47.4791 11.2465 48.4174 11.014 49.2453 10.5699L50.7498 9.76343C51.0633 9.59586 51.4152 9.50997 51.7671 9.50997C52.1189 9.50997 52.4708 9.59376 52.7844 9.76343L54.2911 10.572C55.1167 11.014 56.0551 11.2465 57.0069 11.2465H58.7438C59.4678 11.2465 60.1445 11.6089 60.5077 12.1933L61.3761 13.5905C61.8521 14.3571 62.54 14.996 63.3656 15.4359L64.8701 16.2424C65.4994 16.5796 65.8874 17.2059 65.8874 17.8804V19.4954C65.8874 20.3815 66.14 21.2529 66.616 22.0175L67.4844 23.4146C67.8476 23.999 67.8476 24.7217 67.4844 25.3061L66.616 26.7033C66.14 27.47 65.8874 28.3414 65.8874 29.2274V30.8424C65.8874 31.5148 65.4972 32.1433 64.8701 32.4805L63.3611 33.2891C62.5355 33.7289 61.8498 34.3678 61.3739 35.1324Z" fill="#C77DFF"/>
<path d="M35.2919 65.315H83.7951C84.7334 65.315 85.4936 64.6091 85.4936 63.7377C85.4936 62.8663 84.7334 62.1604 83.7951 62.1604H35.2919C34.3535 62.1604 33.5934 62.8663 33.5934 63.7377C33.5934 64.6091 34.3535 65.315 35.2919 65.315Z" fill="#DDE345"/>
<path d="M35.2919 76.6494H83.7951C84.7334 76.6494 85.4936 75.9435 85.4936 75.0721C85.4936 74.2007 84.7334 73.4948 83.7951 73.4948H35.2919C34.3535 73.4948 33.5934 74.2007 33.5934 75.0721C33.5934 75.9414 34.3535 76.6494 35.2919 76.6494Z" fill="#DDE345"/>
<path d="M97.383 82.5188H89.5582C92.0417 80.3738 93.6071 77.3218 93.6071 73.9305V1.57731C93.6071 0.705915 92.8469 0 91.9086 0H27.0159C26.0775 0 25.3174 0.705915 25.3174 1.57731V39.0872H5.12257C4.18423 39.0872 3.42407 39.7931 3.42407 40.6645V73.9305C3.42407 77.3218 4.98949 80.3738 7.47296 82.5188H1.6985C0.760153 82.5188 0 83.2247 0 84.0961C0 84.9675 0.760153 85.6734 1.6985 85.6734H16.0692H80.9664H97.3853C98.3236 85.6734 99.0838 84.9675 99.0838 84.0961C99.0815 83.2247 98.3214 82.5188 97.383 82.5188ZM6.82108 46.1736V42.2439H25.3174V73.9326C25.3174 78.6687 21.1692 82.5209 16.0692 82.5209C10.9692 82.5209 6.82108 78.6687 6.82108 73.9326V49.3282M27.1084 79.6386C27.2211 79.4501 27.3226 79.2532 27.4264 79.0584C27.5076 78.9034 27.5933 78.7525 27.6678 78.5954C27.7648 78.3901 27.8437 78.1786 27.9272 77.967C27.9903 77.8099 28.058 77.6549 28.1144 77.4957C28.1911 77.2695 28.252 77.0391 28.3151 76.8065C28.358 76.6536 28.4076 76.5028 28.4437 76.3478C28.5023 76.0881 28.5407 75.822 28.5813 75.556C28.6016 75.422 28.6309 75.2921 28.6467 75.158C28.6918 74.7537 28.7166 74.3453 28.7166 73.9305V40.6645V3.15463H90.2146V73.9305C90.2146 78.6666 86.0665 82.5188 80.9664 82.5188H24.6835C24.7377 82.4727 24.7828 82.4204 24.8347 82.3743C24.9948 82.2318 25.146 82.081 25.2993 81.9302C25.4302 81.8003 25.561 81.6704 25.685 81.5364C25.8317 81.3772 25.967 81.2117 26.1046 81.0462C26.2196 80.9059 26.3369 80.7676 26.4452 80.6231C26.576 80.4492 26.6956 80.2691 26.8151 80.089C26.9144 79.9381 27.0181 79.7915 27.1084 79.6386Z" fill="#7B2CBF"/>
<path d="M73.074 34.3511H83.7951C84.7334 34.3511 85.4936 33.6452 85.4936 32.7738C85.4936 31.9024 84.7334 31.1964 83.7951 31.1964H73.074C72.1356 31.1964 71.3755 31.9024 71.3755 32.7738C71.3755 33.6452 72.1356 34.3511 73.074 34.3511Z" fill="#DDE345"/>
<path d="M73.074 20.3312H83.7951C84.7334 20.3312 85.4936 19.6253 85.4936 18.7539C85.4936 17.8825 84.7334 17.1766 83.7951 17.1766H73.074C72.1356 17.1766 71.3755 17.8825 71.3755 18.7539C71.3755 19.6253 72.1356 20.3312 73.074 20.3312Z" fill="#EBEC6D"/>
<path d="M83.795 24.1855H75.7175C74.7792 24.1855 74.019 24.8914 74.019 25.7628C74.019 26.6342 74.7792 27.3401 75.7175 27.3401H83.795C84.7334 27.3401 85.4935 26.6342 85.4935 25.7628C85.4935 24.8935 84.7334 24.1855 83.795 24.1855Z" fill="#DDE345"/>
<path d="M83.795 50.8259H75.7175C74.7792 50.8259 74.019 51.5318 74.019 52.4032C74.019 53.2746 74.7792 53.9806 75.7175 53.9806H83.795C84.7334 53.9806 85.4935 53.2746 85.4935 52.4032C85.4935 51.5339 84.7334 50.8259 83.795 50.8259Z" fill="#DDE345"/>
<path d="M68.9236 41.362H83.7973C84.7356 41.362 85.4958 40.6561 85.4958 39.7847C85.4958 38.9133 84.7356 38.2074 83.7973 38.2074H68.9236C67.9852 38.2074 67.225 38.9133 67.225 39.7847C67.2228 40.6561 67.9852 41.362 68.9236 41.362Z" fill="#DDE345"/>
</svg>
