<svg width="105" height="71" viewBox="0 0 105 71" fill="none" xmlns="http://www.w3.org/2000/svg">
<path d="M98.1801 15.0468H93.9027V6.63092C93.9027 3.29204 90.9435 0.574707 87.3074 0.574707H6.593C2.95687 0.574707 0 3.29204 0 6.63092V10.6742V24.4375V50.189C0 53.5278 2.95925 56.2452 6.593 56.2452H10.8704V64.6611C10.8704 68 13.8296 70.7173 17.4657 70.7173H98.1801C101.816 70.7173 104.775 68 104.775 64.6611V21.103C104.773 17.762 101.816 15.0468 98.1801 15.0468ZM10.8704 26.023V38.9074V53.0699H6.593C4.86162 53.0699 3.45325 51.7766 3.45325 50.1868V26.023H10.8704ZM87.3074 3.74784C89.0387 3.74784 90.4471 5.04108 90.4471 6.63092V15.0468H74.3565V10.6742C74.3565 9.79751 73.5823 9.08873 72.6299 9.08873H3.45325V6.63092C3.45325 5.04108 4.86162 3.74784 6.593 3.74784H87.3074ZM14.326 37.322V26.7318H81.7736V37.322H14.326ZM14.326 54.6553V40.4929H83.5026C84.4574 40.4929 85.2292 39.782 85.2292 38.9074V25.1441C85.2292 24.2674 84.455 23.5587 83.5026 23.5587H14.326V21.1008C14.326 19.511 15.7344 18.2178 17.4657 18.2178H72.6299H92.1761H98.1801C99.9115 18.2178 101.32 19.511 101.32 21.1008V64.6567C101.32 66.2465 99.9115 67.5398 98.1801 67.5398H17.4657C15.7344 67.5398 14.326 66.2465 14.326 64.6567V54.6553ZM10.8704 22.8499H3.45325V12.2597H70.9009V15.0468H17.4634C13.8273 15.0468 10.868 17.7641 10.868 21.103V22.8499H10.8704Z" fill="#7B2CBF"/>
<path d="M80.028 63.8323C81.5195 63.8323 82.9516 63.4354 84.1819 62.7027C85.3789 63.4093 86.7944 63.8323 88.3191 63.8323C92.5514 63.8323 95.9951 60.6701 95.9951 56.7838C95.9951 52.8976 92.5514 49.7354 88.3191 49.7354C86.7944 49.7354 85.3789 50.1584 84.1819 50.865C82.9516 50.1323 81.5195 49.7354 80.028 49.7354C75.7957 49.7354 72.352 52.8976 72.352 56.7838C72.352 60.6723 75.7957 63.8323 80.028 63.8323ZM80.8474 55.2311C80.8236 55.3249 80.8046 55.4186 80.7856 55.5146C80.7025 55.9311 80.6455 56.3542 80.6455 56.786C80.6455 57.2178 80.7025 57.6409 80.7856 58.0575C80.8046 58.1534 80.826 58.2472 80.8474 58.341C81.0207 59.0454 81.2962 59.7236 81.6976 60.3452C81.1775 60.5545 80.6123 60.6636 80.0304 60.6636C77.7029 60.6636 75.81 58.9254 75.81 56.786C75.81 54.6488 77.7029 52.9107 80.0304 52.9107C80.6123 52.9107 81.1751 53.0197 81.6976 53.2269C81.2962 53.8484 81.0207 54.5245 80.8474 55.2311ZM88.3215 52.9085C90.649 52.9085 92.5419 54.6466 92.5419 56.7838C92.5419 58.9211 90.649 60.6614 88.3215 60.6614C87.1767 60.6614 86.1413 60.2383 85.3813 59.5579C84.7638 59.0061 84.3529 58.3148 84.1866 57.5624C84.1296 57.3116 84.1011 57.0521 84.1011 56.786C84.1011 56.52 84.1296 56.2604 84.1866 56.0096C84.2413 55.761 84.3244 55.5168 84.4313 55.2834C84.6474 54.8145 84.968 54.3849 85.3813 54.0142C86.1413 53.3316 87.1767 52.9085 88.3215 52.9085Z" fill="#C77DFF"/>
<path d="M35.7485 58.3715H58.1519C59.1066 58.3715 59.8785 57.6606 59.8785 56.786C59.8785 55.9093 59.1042 55.2006 58.1519 55.2006H35.7485C34.7937 55.2006 34.0219 55.9115 34.0219 56.786C34.0195 57.6606 34.7937 58.3715 35.7485 58.3715Z" fill="#DDE345"/>
<path d="M21.7669 58.3715H30.4712C31.426 58.3715 32.1979 57.6606 32.1979 56.786C32.1979 55.9093 31.4236 55.2006 30.4712 55.2006H21.7669C20.8121 55.2006 20.0403 55.9115 20.0403 56.786C20.0379 57.6606 20.8121 58.3715 21.7669 58.3715Z" fill="#DDE345"/>
</svg>
