<svg width="71" height="94" viewBox="0 0 71 94" fill="none" xmlns="http://www.w3.org/2000/svg">
<path d="M33.8049 34.7714H28.4915V29.8924C28.4915 29.054 27.7531 28.376 26.8401 28.376H19.364C18.451 28.376 17.7127 29.054 17.7127 29.8924V34.7714H12.3993C11.4863 34.7714 10.7479 35.4494 10.7479 36.2878V43.1527C10.7479 43.9911 11.4863 44.6691 12.3993 44.6691H17.7127V49.5481C17.7127 50.3864 18.451 51.0644 19.364 51.0644H26.8401C27.7531 51.0644 28.4915 50.3864 28.4915 49.5481V44.6691H33.8049C34.7179 44.6691 35.4562 43.9911 35.4562 43.1527V36.2878C35.4562 35.4494 34.7154 34.7714 33.8049 34.7714ZM19.364 41.6363H14.0507V37.8041H19.364C20.277 37.8041 21.0154 37.1261 21.0154 36.2878V31.4088H25.1888V36.2878C25.1888 37.1261 25.9271 37.8041 26.8401 37.8041H32.1535V41.6363H26.8401C25.9271 41.6363 25.1888 42.3143 25.1888 43.1527V48.0317H21.0154V43.1527C21.0154 42.3143 20.2745 41.6363 19.364 41.6363Z" fill="#C77DFF"/>
<path d="M41.1014 33.7635H58.1665C59.0795 33.7635 59.8179 33.0855 59.8179 32.2471C59.8179 31.4088 59.0795 30.7307 58.1665 30.7307H41.1014C40.1884 30.7307 39.45 31.4088 39.45 32.2471C39.45 33.0855 40.1909 33.7635 41.1014 33.7635Z" fill="#DDE345"/>
<path d="M41.1014 41.2355H58.1665C59.0795 41.2355 59.8179 40.5575 59.8179 39.7191C59.8179 38.8807 59.0795 38.2027 58.1665 38.2027H41.1014C40.1884 38.2027 39.45 38.8807 39.45 39.7191C39.45 40.5575 40.1909 41.2355 41.1014 41.2355Z" fill="#DDE345"/>
<path d="M58.1664 78.9228H12.3968C11.4838 78.9228 10.7454 79.6008 10.7454 80.4392C10.7454 81.2775 11.4838 81.9555 12.3968 81.9555H58.1664C59.0794 81.9555 59.8178 81.2775 59.8178 80.4392C59.8178 79.6031 59.0794 78.9228 58.1664 78.9228Z" fill="#DDE345"/>
<path d="M63.5521 14.6965H55.9263V10.2092C55.9263 8.03544 54.0006 6.26709 51.6333 6.26709H50.9722C50.9123 2.80141 47.8241 0 44.0374 0H26.5333C22.7466 0 19.6584 2.80141 19.5985 6.26709H18.9375C16.5701 6.26709 14.6444 8.03544 14.6444 10.2092V14.6965H7.01859C3.19448 14.6965 0.0838013 17.5529 0.0838013 21.0644V87.5652C0.0838013 91.0767 3.19448 93.9331 7.01859 93.9331H63.5571C67.3812 93.9331 70.4944 91.0767 70.4944 87.5652V21.0644C70.4869 17.5529 67.3762 14.6965 63.5521 14.6965ZM47.6669 6.36788V7.78347C47.6669 8.62184 48.4053 9.29986 49.3183 9.29986H51.6308C52.1771 9.29986 52.6211 9.70758 52.6211 10.2092V16.2129V19.7015H17.9421V16.2129V10.2092C17.9421 9.70758 18.3862 9.29986 18.9325 9.29986H21.2449H43.8553C44.7683 9.29986 45.5067 8.62184 45.5067 7.78347C45.5067 6.94511 44.7683 6.26709 43.8553 6.26709H22.9087C22.9686 4.47584 24.5651 3.03276 26.5308 3.03276H44.0349C46.038 3.03047 47.6669 4.52853 47.6669 6.36788ZM16.2908 22.732H54.2725C55.1855 22.732 55.9238 22.0539 55.9238 21.2156V17.727H63.5496C65.5527 17.727 67.1816 19.2228 67.1816 21.0621V87.563C67.1816 89.4023 65.5502 90.8981 63.5496 90.8981H7.0136C5.0105 90.8981 3.38157 89.4023 3.38157 87.563V21.0644C3.38157 19.225 5.0105 17.7293 7.0136 17.7293H14.6394V21.2179C14.6394 22.0539 15.3778 22.732 16.2908 22.732Z" fill="#7B2CBF"/>
<path d="M10.7454 57.9248C10.7454 58.7632 11.4838 59.4412 12.3968 59.4412H58.1664C59.0794 59.4412 59.8178 58.7632 59.8178 57.9248C59.8178 57.0865 59.0794 56.4084 58.1664 56.4084H12.3968C11.4863 56.4084 10.7454 57.0888 10.7454 57.9248Z" fill="#DDE345"/>
<path d="M41.1014 48.7097H58.1665C59.0795 48.7097 59.8179 48.0317 59.8179 47.1933C59.8179 46.355 59.0795 45.6769 58.1665 45.6769H41.1014C40.1884 45.6769 39.45 46.355 39.45 47.1933C39.45 48.0294 40.1909 48.7097 41.1014 48.7097Z" fill="#DDE345"/>
<path d="M58.1664 67.6668H12.3968C11.4838 67.6668 10.7454 68.3448 10.7454 69.1832C10.7454 70.0215 11.4838 70.6995 12.3968 70.6995H58.1664C59.0794 70.6995 59.8178 70.0215 59.8178 69.1832C59.8178 68.3448 59.0794 67.6668 58.1664 67.6668Z" fill="#DDE345"/>
</svg>
