<svg width="95" height="94" viewBox="0 0 95 94" fill="none" xmlns="http://www.w3.org/2000/svg">
<path d="M39.3167 93.9932C38.5791 93.5433 38.3379 92.8967 38.373 92.0647C38.4246 90.8528 38.3801 89.6387 38.3871 88.4246C38.4128 84.5991 40.2275 81.8996 43.8732 80.3848C47.8468 78.732 51.8343 77.1064 55.8149 75.465C57.2619 74.8681 57.9995 73.2312 57.4048 71.8656C57.3134 71.6553 57.0067 71.5106 56.7702 71.3885C52.593 69.2181 49.1931 66.2291 46.6011 62.3901C46.4817 62.2115 46.3646 62.0329 46.2499 61.852C45.538 60.7396 45.5966 59.9551 46.4208 59.4848C47.2099 59.0349 47.8702 59.3899 48.6452 60.3734C49.9705 62.0577 51.256 63.8077 52.8178 65.275C55.8102 68.0854 59.3482 70.0908 63.488 70.9251C66.0426 71.4406 68.555 71.1625 70.9738 70.2287C78.7569 67.2262 83.6577 61.6689 86.2591 54.088C86.3481 53.8303 86.4019 53.5567 86.5167 53.3102C87.9777 50.1404 87.1699 47.1786 85.6035 44.305C83.5406 40.5202 80.4358 37.6647 76.6894 35.5055C74.3572 34.1603 71.8448 33.0999 69.3886 31.9604C67.5247 31.0945 65.6281 30.2941 63.7362 29.4892C63.4576 29.3716 63.0571 29.2699 62.8113 29.3762C60.9498 30.172 59.0977 30.9972 57.269 31.8609C51.4058 34.6283 47.6641 39.123 45.7488 45.1054C45.3531 46.3421 44.845 47.5449 44.4399 48.7794C44.3439 49.0733 44.3977 49.4441 44.4773 49.7561C44.8403 51.1963 45.2219 52.6342 45.6247 54.0654C45.9174 55.1077 45.6504 55.856 44.8426 56.1093C43.9716 56.3828 43.2785 55.9352 42.9156 54.8658C42.8383 54.6351 42.754 54.4068 42.6978 54.1694C42.0633 51.506 41.218 48.9964 39.4501 46.7197C37.6612 44.4181 37.3498 41.5105 37.1953 38.6663C37.0033 35.1302 37.2842 31.6416 38.359 28.2367C38.4784 27.8613 38.6212 27.4883 38.7922 27.1333C39.5485 25.5665 40.6373 24.4541 42.6931 24.6508C42.7517 24.0562 42.8266 23.4955 42.857 22.9325C42.96 20.9429 43.8568 19.3332 45.5685 18.2841C47.0928 17.3503 48.7482 16.6088 50.3709 15.8355C50.7783 15.6411 51.0265 15.5167 51.0078 15.0103C50.8345 9.87574 54.2156 3.64239 62.1088 1.5533C69.7679 -0.472484 76.3335 1.67991 82.0842 6.68785C84.524 8.81311 86.6197 11.2165 88.4062 13.8798C89.0853 14.8927 89.3288 15.9305 88.9144 17.07C88.6849 17.7008 88.8277 18.205 89.1906 18.7589C91.3144 21.992 93.3164 25.2907 94.061 29.1207C95.1544 34.7413 95.1381 40.3371 93.3702 45.8447C92.8785 47.3731 92.0332 48.7093 90.6026 49.6408C90.3684 49.7923 90.2373 50.1766 90.1741 50.4773C89.186 55.0308 87.5329 59.3153 84.7512 63.1543C82.2949 66.5411 79.2135 69.2791 75.4156 71.1851C74.383 71.7028 74.3736 72.3585 74.39 73.2244C74.4064 74.1559 74.7038 74.893 75.6287 75.2841C76.9774 75.8561 78.3729 76.3422 79.6701 77.0069C80.0986 77.2262 80.5154 77.8887 80.5107 78.3431C80.506 78.7456 79.9558 79.2091 79.5413 79.5075C79.3376 79.6522 78.8623 79.5618 78.5649 79.4465C77.1132 78.8767 75.6568 78.307 74.2448 77.6536C72.6081 76.8962 71.7816 75.5577 71.5943 73.8371C71.5662 73.5726 71.5474 73.3058 71.517 72.9689C67.7776 74.1989 64.078 74.1944 60.3504 72.9644C60.2848 73.5749 60.2825 74.0632 60.1724 74.529C59.772 76.236 58.6317 77.3076 56.9903 77.9746C53.0027 79.5957 49.0269 81.2484 45.044 82.8831C42.4426 83.9502 41.2227 85.7205 41.2156 88.4675C41.2133 89.3696 41.2156 90.2717 41.2156 91.2213C57.7185 91.2213 74.1301 91.2213 90.5581 91.2213C90.5581 89.7924 90.7126 88.3884 90.5206 87.0273C90.2677 85.2435 89.1368 83.9344 87.4439 83.1408C86.5986 82.7451 85.7135 82.4286 84.8565 82.051C83.9597 81.6554 83.6179 80.9681 83.9246 80.2446C84.2594 79.4532 85.0017 79.191 85.9664 79.564C86.8679 79.9122 87.7787 80.2536 88.6451 80.6787C91.6399 82.1437 93.2859 84.4996 93.4452 87.7531C93.5177 89.2362 93.4334 90.7262 93.4826 92.2116C93.5107 93.0323 93.2297 93.6224 92.4781 94C74.7576 93.9932 57.0372 93.9932 39.3167 93.9932ZM59.772 5.38782C59.2124 5.75409 58.6645 6.05253 58.1892 6.43462C54.9509 9.04824 53.2205 12.3062 54.0564 16.4392C54.5903 19.0822 56.419 21.0198 58.4631 22.7313C61.9894 25.6841 66.0519 27.7641 70.3814 29.3852C73.5799 30.5835 76.6449 32.0373 79.4617 33.9387C83.7982 36.8621 87.2893 40.4682 89.1813 45.3382C89.3522 45.7746 89.4927 46.2223 89.6496 46.6654C89.7362 46.6767 89.8228 46.6858 89.9118 46.6971C90.2654 45.8718 90.736 45.0737 90.9538 44.2146C92.1995 39.2835 92.3095 34.3208 91.2231 29.349C90.4691 25.9011 88.5982 22.9484 86.6829 20.0273C85.9641 18.933 85.7322 17.841 86.0999 16.5703C86.2216 16.1498 86.1163 15.5258 85.8563 15.1686C84.812 13.7329 83.7607 12.2836 82.5408 10.9881C78.9115 7.13325 74.7436 4.12849 69.1287 3.60847C66.8996 3.40273 64.7173 3.58134 62.5139 4.29579C63.6519 5.6953 65.0779 6.57254 66.6022 7.29603C68.6276 8.25692 70.7139 9.10251 72.7276 10.0837C74.9122 11.1486 76.8392 12.5391 78.1364 14.6101C78.7499 15.5891 78.6445 16.3714 77.8578 16.8281C77.1015 17.2644 76.4341 16.9547 75.734 16.0955C75.0246 15.2251 74.2893 14.2732 73.3434 13.7035C71.517 12.6024 69.5642 11.6845 67.609 10.8005C64.6658 9.47104 61.774 8.0964 59.772 5.38782ZM42.4356 46.2426C42.562 45.8266 42.6533 45.5372 42.7376 45.2478C45.0955 37.1605 50.2093 31.4607 58.3765 28.3972C59.004 28.1621 59.6011 27.8478 60.3059 27.5267C56.5829 25.0555 53.3235 22.3538 51.5323 18.0738C49.9728 18.942 48.493 19.7107 47.0764 20.5767C46.182 21.1238 45.6528 22.0056 45.6973 23.0366C45.8237 25.9057 45.9923 28.7725 46.2194 31.6348C46.299 32.6477 45.9759 33.3622 45.1002 33.5204C44.2947 33.6651 43.6203 33.1632 43.4518 32.1707C43.2246 30.8277 43.0982 29.4689 42.8875 28.1236C42.85 27.8817 42.6322 27.5019 42.4636 27.4838C42.1967 27.4566 41.7612 27.6059 41.6465 27.8116C41.3069 28.4175 41.0119 29.0687 40.8386 29.7356C39.9676 33.0592 39.7592 36.4393 40.1175 39.842C40.354 42.0848 40.9066 44.2462 42.4356 46.2426Z" fill="#7B2CBF"/>
<path d="M14.7051 81.4926C13.7147 82.0895 12.7898 82.6479 11.8766 83.1996C12.757 85.5758 12.5065 86.2586 10.3195 87.5586C9.75989 87.8933 9.21198 88.2527 8.62895 88.5444C7.43244 89.1413 6.11183 88.8858 5.37894 87.796C3.68838 85.2819 2.03762 82.7384 0.443058 80.1677C-0.252368 79.0485 0.0871504 77.7892 1.19 77.0295C2.0306 76.4507 2.91334 75.9172 3.81716 75.4356C5.13308 74.7347 6.19847 75.0693 7.53547 76.5661C7.98738 76.297 8.46036 76.0234 8.92866 75.7408C9.40164 75.4559 9.86994 75.162 10.3944 74.8387C9.37823 73.2606 8.38777 71.7593 7.43712 70.2332C6.97585 69.4894 7.1538 68.7048 7.8305 68.3227C8.51655 67.9361 9.15813 68.0424 9.6873 68.6235C9.85121 68.8043 9.96594 69.0259 10.1018 69.2294C10.3219 69.5572 10.5396 69.8873 10.8136 70.2988C11.1273 70.1202 11.4153 69.9619 11.6987 69.7923C18.5077 65.6797 25.3168 61.5671 32.1259 57.4545C33.8001 56.4439 34.6501 56.4688 36.2493 57.5653C40.2814 55.6887 40.2814 55.6887 42.6346 58.3001C44.0723 57.3347 45.5099 56.3625 46.9546 55.3993C47.91 54.764 48.7646 54.8205 49.261 55.535C49.7481 56.2359 49.528 56.9775 48.6077 57.6083C47.1279 58.6211 45.6364 59.6182 44.0816 60.6673C44.3181 61.0494 44.5335 61.3749 44.7255 61.7118C45.5146 63.091 45.1657 64.5674 43.8358 65.4808C43.632 65.621 43.4237 65.7611 43.1989 65.8674C42.4473 66.2246 42.0445 66.6338 42.1944 67.6015C42.3723 68.7568 41.5622 69.5482 40.5623 70.1496C34.6782 73.6879 28.801 77.2443 22.9238 80.794C21.6758 81.5469 20.4325 82.3043 19.1072 83.1069C19.4233 83.5998 19.723 84.0497 20.0016 84.5087C20.5168 85.3565 20.3786 86.1614 19.6598 86.5774C18.9456 86.9912 18.1448 86.7538 17.5946 85.9217C16.6345 84.4747 15.6933 83.0119 14.7051 81.4926ZM34.1373 59.4667C32.5029 60.4548 30.9786 61.3772 29.4332 62.311C29.9413 63.0978 30.3815 63.758 30.803 64.4317C31.3696 65.3383 31.2455 66.1297 30.4845 66.566C29.7727 66.9752 28.9766 66.7265 28.4193 65.899C27.9463 65.1982 27.4968 64.4837 27.0238 63.7557C25.8015 64.4995 24.6753 65.1868 23.5022 65.899C25.2887 68.6551 27.0121 71.3162 28.7752 74.0361C32.3624 71.8679 35.8747 69.7426 39.4103 67.6038C37.6214 64.8432 35.9098 62.2024 34.1373 59.4667ZM17.5969 80.7917C20.5729 78.992 23.4553 77.2489 26.3752 75.4831C24.5839 72.7202 22.8583 70.0591 21.0951 67.3415C20.1046 67.9406 19.1915 68.4946 18.2595 69.0575C18.5499 69.5165 18.7606 69.8511 18.976 70.1857C19.2079 70.5452 19.456 70.8979 19.6762 71.2642C20.1608 72.0691 20.0367 72.8446 19.3718 73.2787C18.6787 73.7286 17.831 73.5116 17.2831 72.7135C16.8008 72.008 16.3442 71.2823 15.8478 70.5204C14.6677 71.2303 13.5274 71.9153 12.3192 72.6434C14.0776 75.3542 15.8033 78.0198 17.5969 80.7917ZM3.03978 79.1028C4.5641 81.4542 6.0369 83.7219 7.53078 86.0257C8.2145 85.5984 8.81158 85.2276 9.45081 84.8274C7.93586 82.4897 6.46306 80.2197 4.97855 77.9294C4.30654 78.3364 3.72584 78.6891 3.03978 79.1028ZM42.3372 63.1656C41.3889 61.7028 40.4921 60.3236 39.5461 58.8676C38.9233 59.2587 38.366 59.6092 37.797 59.9687C38.7547 61.4428 39.6492 62.8174 40.574 64.2373C41.1969 63.8597 41.7237 63.5386 42.3372 63.1656ZM13.2042 79.1616C12.7476 78.4675 12.3332 77.8412 11.893 77.1697C10.8791 77.7847 9.94019 78.3544 8.96612 78.9445C9.44613 79.659 9.86292 80.283 10.2961 80.9274C11.3076 80.3147 12.2278 79.7562 13.2042 79.1616Z" fill="#C77DFF"/>
<path d="M59.2545 53.1496C57.0676 53.0569 55.2529 51.3974 55.1312 49.3762C55.0703 48.3723 55.5245 47.7415 56.3745 47.6533C57.1659 47.5719 57.7888 48.0739 57.9269 49.0189C58.0533 49.8758 58.517 50.3868 59.3833 50.3936C60.1982 50.4004 60.6922 49.9346 60.835 49.1207C61.0247 48.0377 61.6288 47.529 62.4835 47.6692C63.3545 47.8093 63.7549 48.4605 63.6355 49.5435C63.4154 51.5896 61.4087 53.2401 59.2545 53.1496Z" fill="#7B2CBF"/>
<path d="M72.5192 53.1543C70.3158 53.1724 68.4122 51.4902 68.2108 49.3469C68.1288 48.4629 68.6135 47.7846 69.4167 47.6648C70.2175 47.5427 70.8333 48.0401 71.0136 48.958C71.2032 49.9166 71.7301 50.4547 72.5192 50.405C73.4558 50.3462 73.8655 49.7742 73.9943 48.9173C74.1231 48.0559 74.76 47.5675 75.528 47.6557C76.3311 47.7484 76.8533 48.4289 76.7854 49.3017C76.6238 51.4292 74.7366 53.1362 72.5192 53.1543Z" fill="#7B2CBF"/>
</svg>
