<svg width="27" height="27" viewBox="0 0 27 27" fill="none" xmlns="http://www.w3.org/2000/svg">
<path fill-rule="evenodd" clip-rule="evenodd" d="M7.97946 0.258581C9.36425 0.194831 9.80578 0.180664 13.3333 0.180664C16.8608 0.180664 17.3023 0.196011 18.6859 0.258581C20.0695 0.32115 21.014 0.541914 21.8404 0.861845C22.7057 1.18886 23.4908 1.70004 24.1401 2.36115C24.8012 3.00927 25.3112 3.79316 25.637 4.65969C25.9581 5.48608 26.1777 6.43052 26.2415 7.81177C26.3052 9.19893 26.3194 9.64046 26.3194 13.1668C26.3194 16.6943 26.304 17.1358 26.2415 18.5206C26.1789 19.9018 25.9581 20.8463 25.637 21.6727C25.3112 22.5393 24.8003 23.3245 24.1401 23.9736C23.4908 24.6347 22.7057 25.1447 21.8404 25.4705C21.014 25.7916 20.0695 26.0112 18.6883 26.075C17.3023 26.1387 16.8608 26.1529 13.3333 26.1529C9.80578 26.1529 9.36425 26.1375 7.97946 26.075C6.59821 26.0124 5.65376 25.7916 4.82738 25.4705C3.96075 25.1446 3.17557 24.6338 2.52647 23.9736C1.86581 23.3251 1.35455 22.5402 1.02835 21.6739C0.708418 20.8475 0.488835 19.903 0.425085 18.5218C0.361335 17.1346 0.347168 16.6931 0.347168 13.1668C0.347168 9.63927 0.362515 9.19775 0.425085 7.81414C0.487654 6.43052 0.708418 5.48608 1.02835 4.65969C1.35503 3.79326 1.86668 3.00846 2.52765 2.35997C3.17583 1.69945 3.96022 1.1882 4.8262 0.861845C5.65258 0.541914 6.59703 0.322331 7.97828 0.258581H7.97946ZM18.5808 2.59608C17.2114 2.53351 16.8006 2.52053 13.3333 2.52053C9.86599 2.52053 9.45515 2.53351 8.08571 2.59608C6.81897 2.65393 6.13189 2.86525 5.67383 3.04351C5.06821 3.27962 4.63495 3.55941 4.18043 4.01393C3.74958 4.43309 3.41801 4.94336 3.21001 5.50733C3.03175 5.96539 2.82043 6.65247 2.76258 7.9192C2.70001 9.28865 2.68703 9.69948 2.68703 13.1668C2.68703 16.6341 2.70001 17.0449 2.76258 18.4143C2.82043 19.6811 3.03175 20.3682 3.21001 20.8262C3.41779 21.3893 3.74953 21.9005 4.18043 22.3196C4.59953 22.7505 5.11071 23.0823 5.67383 23.29C6.13189 23.4683 6.81897 23.6796 8.08571 23.7375C9.45515 23.8 9.86481 23.813 13.3333 23.813C16.8017 23.813 17.2114 23.8 18.5808 23.7375C19.8476 23.6796 20.5347 23.4683 20.9927 23.29C21.5983 23.0539 22.0316 22.7741 22.4861 22.3196C22.917 21.9005 23.2488 21.3893 23.4565 20.8262C23.6348 20.3682 23.8461 19.6811 23.904 18.4143C23.9665 17.0449 23.9795 16.6341 23.9795 13.1668C23.9795 9.69948 23.9665 9.28865 23.904 7.9192C23.8461 6.65247 23.6348 5.96539 23.4565 5.50733C23.2204 4.90171 22.9406 4.46844 22.4861 4.01393C22.0669 3.58311 21.5567 3.25154 20.9927 3.04351C20.5347 2.86525 19.8476 2.65393 18.5808 2.59608ZM11.6746 17.17C12.6009 17.5556 13.6324 17.6077 14.5928 17.3173C15.5533 17.0269 16.3831 16.412 16.9406 15.5778C17.4981 14.7435 17.7486 13.7416 17.6494 12.7431C17.5503 11.7446 17.1075 10.8115 16.3968 10.1032C15.9438 9.65046 15.396 9.30377 14.7928 9.08813C14.1897 8.87248 13.5463 8.79324 12.9089 8.85611C12.2714 8.91898 11.6559 9.1224 11.1065 9.45172C10.5571 9.78104 10.0876 10.2281 9.73176 10.7606C9.37589 11.2932 9.14253 11.898 9.04847 12.5316C8.95441 13.1652 9.002 13.8117 9.1878 14.4247C9.37361 15.0376 9.69301 15.6018 10.123 16.0765C10.553 16.5512 11.0829 16.9247 11.6746 17.17ZM8.61342 8.44691C9.23324 7.82709 9.96907 7.33542 10.7789 6.99998C11.5887 6.66453 12.4567 6.49188 13.3333 6.49188C14.2098 6.49188 15.0778 6.66453 15.8876 6.99998C16.6975 7.33542 17.4333 7.82709 18.0531 8.44691C18.673 9.06673 19.1646 9.80257 19.5001 10.6124C19.8355 11.4222 20.0082 12.2902 20.0082 13.1668C20.0082 14.0433 19.8355 14.9113 19.5001 15.7211C19.1646 16.531 18.673 17.2668 18.0531 17.8866C16.8014 19.1384 15.1036 19.8417 13.3333 19.8417C11.563 19.8417 9.8652 19.1384 8.61342 17.8866C7.36163 16.6348 6.65839 14.9371 6.65839 13.1668C6.65839 11.3965 7.36163 9.6987 8.61342 8.44691ZM21.4886 7.48594C21.6421 7.34105 21.7651 7.16681 21.8502 6.97355C21.9352 6.78028 21.9806 6.57192 21.9837 6.36079C21.9868 6.14966 21.9475 5.94006 21.8681 5.7444C21.7887 5.54874 21.6709 5.37099 21.5216 5.22168C21.3723 5.07238 21.1945 4.95454 20.9988 4.87516C20.8032 4.79578 20.5936 4.75647 20.3825 4.75955C20.1713 4.76262 19.963 4.80803 19.7697 4.89308C19.5764 4.97813 19.4022 5.1011 19.2573 5.25469C18.9755 5.55341 18.8212 5.95018 18.8272 6.36079C18.8332 6.7714 18.999 7.16351 19.2894 7.45388C19.5797 7.74426 19.9718 7.91003 20.3825 7.91602C20.7931 7.922 21.1898 7.76773 21.4886 7.48594Z" fill="white"/>
</svg>
