<svg width="29" height="29" viewBox="0 0 29 29" fill="none" xmlns="http://www.w3.org/2000/svg">
<path fill-rule="evenodd" clip-rule="evenodd" d="M8.97946 1.25858C10.3642 1.19483 10.8058 1.18066 14.3333 1.18066C17.8608 1.18066 18.3023 1.19601 19.6859 1.25858C21.0695 1.32115 22.014 1.54191 22.8404 1.86184C23.7057 2.18886 24.4908 2.70004 25.1401 3.36115C25.8012 4.00927 26.3112 4.79316 26.637 5.65969C26.9581 6.48608 27.1777 7.43052 27.2415 8.81177C27.3052 10.1989 27.3194 10.6405 27.3194 14.1668C27.3194 17.6943 27.304 18.1358 27.2415 19.5206C27.1789 20.9018 26.9581 21.8463 26.637 22.6727C26.3112 23.5393 25.8003 24.3245 25.1401 24.9736C24.4908 25.6347 23.7057 26.1447 22.8404 26.4705C22.014 26.7916 21.0695 27.0112 19.6883 27.075C18.3023 27.1387 17.8608 27.1529 14.3333 27.1529C10.8058 27.1529 10.3642 27.1375 8.97946 27.075C7.59821 27.0124 6.65376 26.7916 5.82738 26.4705C4.96075 26.1446 4.17557 25.6338 3.52647 24.9736C2.86581 24.3251 2.35455 23.5402 2.02835 22.6739C1.70842 21.8475 1.48883 20.903 1.42508 19.5218C1.36133 18.1346 1.34717 17.6931 1.34717 14.1668C1.34717 10.6393 1.36252 10.1977 1.42508 8.81414C1.48765 7.43052 1.70842 6.48608 2.02835 5.65969C2.35503 4.79326 2.86668 4.00846 3.52765 3.35997C4.17583 2.69945 4.96022 2.1882 5.8262 1.86184C6.65258 1.54191 7.59703 1.32233 8.97828 1.25858H8.97946ZM19.5808 3.59608C18.2114 3.53351 17.8006 3.52053 14.3333 3.52053C10.866 3.52053 10.4552 3.53351 9.08571 3.59608C7.81897 3.65393 7.13189 3.86525 6.67383 4.04351C6.06821 4.27962 5.63495 4.55941 5.18043 5.01393C4.74958 5.43309 4.41801 5.94336 4.21001 6.50733C4.03175 6.96539 3.82043 7.65247 3.76258 8.9192C3.70001 10.2886 3.68703 10.6995 3.68703 14.1668C3.68703 17.6341 3.70001 18.0449 3.76258 19.4143C3.82043 20.6811 4.03175 21.3682 4.21001 21.8262C4.41779 22.3893 4.74953 22.9005 5.18043 23.3196C5.59953 23.7505 6.11071 24.0823 6.67383 24.29C7.13189 24.4683 7.81897 24.6796 9.08571 24.7375C10.4552 24.8 10.8648 24.813 14.3333 24.813C17.8017 24.813 18.2114 24.8 19.5808 24.7375C20.8476 24.6796 21.5347 24.4683 21.9927 24.29C22.5983 24.0539 23.0316 23.7741 23.4861 23.3196C23.917 22.9005 24.2488 22.3893 24.4565 21.8262C24.6348 21.3682 24.8461 20.6811 24.904 19.4143C24.9665 18.0449 24.9795 17.6341 24.9795 14.1668C24.9795 10.6995 24.9665 10.2886 24.904 8.9192C24.8461 7.65247 24.6348 6.96539 24.4565 6.50733C24.2204 5.90171 23.9406 5.46844 23.4861 5.01393C23.0669 4.58311 22.5567 4.25154 21.9927 4.04351C21.5347 3.86525 20.8476 3.65393 19.5808 3.59608V3.59608ZM12.6746 18.17C13.6009 18.5556 14.6324 18.6077 15.5928 18.3173C16.5533 18.0269 17.3831 17.412 17.9406 16.5778C18.4981 15.7435 18.7486 14.7416 18.6494 13.7431C18.5503 12.7446 18.1075 11.8115 17.3968 11.1032C16.9438 10.6505 16.396 10.3038 15.7928 10.0881C15.1897 9.87248 14.5463 9.79324 13.9089 9.85611C13.2714 9.91898 12.6559 10.1224 12.1065 10.4517C11.5571 10.781 11.0876 11.2281 10.7318 11.7606C10.3759 12.2932 10.1425 12.898 10.0485 13.5316C9.95441 14.1652 10.002 14.8117 10.1878 15.4247C10.3736 16.0376 10.693 16.6018 11.123 17.0765C11.553 17.5512 12.0829 17.9247 12.6746 18.17ZM9.61342 9.44691C10.2332 8.82709 10.9691 8.33542 11.7789 7.99998C12.5887 7.66453 13.4567 7.49188 14.3333 7.49188C15.2098 7.49188 16.0778 7.66453 16.8876 7.99998C17.6975 8.33542 18.4333 8.82709 19.0531 9.44691C19.673 10.0667 20.1646 10.8026 20.5001 11.6124C20.8355 12.4222 21.0082 13.2902 21.0082 14.1668C21.0082 15.0433 20.8355 15.9113 20.5001 16.7211C20.1646 17.531 19.673 18.2668 19.0531 18.8866C17.8014 20.1384 16.1036 20.8417 14.3333 20.8417C12.563 20.8417 10.8652 20.1384 9.61342 18.8866C8.36163 17.6349 7.65839 15.9371 7.65839 14.1668C7.65839 12.3965 8.36163 10.6987 9.61342 9.44691V9.44691ZM22.4886 8.48594C22.6421 8.34105 22.7651 8.16681 22.8502 7.97355C22.9352 7.78028 22.9806 7.57192 22.9837 7.36079C22.9868 7.14966 22.9475 6.94006 22.8681 6.7444C22.7887 6.54874 22.6709 6.37099 22.5216 6.22168C22.3723 6.07238 22.1945 5.95454 21.9988 5.87516C21.8032 5.79578 21.5936 5.75647 21.3825 5.75955C21.1713 5.76262 20.963 5.80803 20.7697 5.89308C20.5764 5.97813 20.4022 6.1011 20.2573 6.25469C19.9755 6.55341 19.8212 6.95018 19.8272 7.36079C19.8332 7.7714 19.999 8.16351 20.2894 8.45388C20.5797 8.74425 20.9718 8.91003 21.3825 8.91602C21.7931 8.922 22.1898 8.76773 22.4886 8.48594V8.48594Z" fill="#9D4EDD"/>
</svg>
