<svg width="21" height="25" viewBox="0 0 21 25" fill="none" xmlns="http://www.w3.org/2000/svg">
<path d="M10.5 0.416504C5.42498 0.416504 0.833313 4.30734 0.833313 10.3248C0.833313 14.1673 3.79373 18.6865 9.70248 23.8944C10.1616 24.2932 10.8504 24.2932 11.3096 23.8944C17.2062 18.6865 20.1666 14.1673 20.1666 10.3248C20.1666 4.30734 15.575 0.416504 10.5 0.416504ZM10.5 12.4998C9.17081 12.4998 8.08331 11.4123 8.08331 10.0832C8.08331 8.754 9.17081 7.6665 10.5 7.6665C11.8291 7.6665 12.9166 8.754 12.9166 10.0832C12.9166 11.4123 11.8291 12.4998 10.5 12.4998Z" fill="white"/>
</svg>
