<svg width="24" height="18" viewBox="0 0 24 18" fill="none" xmlns="http://www.w3.org/2000/svg">
<path d="M22.1111 0.333496H1.8889C1.50581 0.333496 1.13841 0.485678 0.867526 0.756564C0.59664 1.02745 0.444458 1.39485 0.444458 1.77794V16.2224C0.444458 16.6055 0.59664 16.9729 0.867526 17.2438C1.13841 17.5146 1.50581 17.6668 1.8889 17.6668H22.1111C22.4942 17.6668 22.8616 17.5146 23.1325 17.2438C23.4034 16.9729 23.5556 16.6055 23.5556 16.2224V1.77794C23.5556 1.39485 23.4034 1.02745 23.1325 0.756564C22.8616 0.485678 22.4942 0.333496 22.1111 0.333496ZM20.9989 16.2224H3.08779L8.14335 10.9935L7.10335 9.98961L1.8889 15.3846V2.87572L10.8661 11.8096C11.1368 12.0786 11.5029 12.2296 11.8845 12.2296C12.2661 12.2296 12.6322 12.0786 12.9028 11.8096L22.1111 2.65183V15.2907L16.7956 9.97516L15.7772 10.9935L20.9989 16.2224ZM2.83501 1.77794H20.9411L11.8845 10.784L2.83501 1.77794Z" fill="white"/>
</svg>
