<svg width="75" height="75" viewBox="0 0 75 75" fill="none" xmlns="http://www.w3.org/2000/svg">
<g clip-path="url(#clip0_303_201)">
<path d="M58.5938 46.875C55.3489 46.875 52.1769 45.9128 49.4789 44.1101C46.7809 42.3073 44.6781 39.745 43.4364 36.7472C42.1946 33.7493 41.8697 30.4506 42.5028 27.2681C43.1358 24.0856 44.6983 21.1622 46.9928 18.8678C49.2872 16.5733 52.2106 15.0108 55.3931 14.3777C58.5756 13.7447 61.8743 14.0696 64.8722 15.3114C67.87 16.5531 70.4323 18.6559 72.2351 21.3539C74.0378 24.0519 75 27.2239 75 30.4688L75.075 32.8125C75.075 37.1215 74.2263 41.3883 72.5773 45.3693C70.9283 49.3503 68.5114 52.9675 65.4645 56.0145C62.4175 59.0614 58.8003 61.4783 54.8193 63.1273C50.8383 64.7763 46.5715 65.625 42.2625 65.625V56.25C45.3417 56.2583 48.392 55.6561 51.237 54.4781C54.0821 53.3002 56.6653 51.57 58.8375 49.3875C59.6818 48.5449 60.4606 47.6391 61.1672 46.6781C60.3159 46.8119 59.4555 46.8793 58.5938 46.8797V46.875ZM16.4063 46.875C13.1614 46.875 9.98943 45.9128 7.29143 44.1101C4.59344 42.3073 2.49061 39.745 1.24886 36.7472C0.00710869 33.7493 -0.31779 30.4506 0.315249 27.2681C0.948288 24.0856 2.51083 21.1622 4.80529 18.8678C7.09974 16.5733 10.0231 15.0108 13.2056 14.3777C16.3881 13.7447 19.6868 14.0696 22.6847 15.3114C25.6825 16.5531 28.2448 18.6559 30.0476 21.3539C31.8503 24.0519 32.8125 27.2239 32.8125 30.4688L32.8875 32.8125C32.8875 41.5149 29.4305 49.8609 23.2769 56.0145C17.1234 62.168 8.77742 65.625 0.0750074 65.625V56.25C3.15422 56.2583 6.20452 55.6561 9.04954 54.4781C11.8946 53.3002 14.4778 51.57 16.65 49.3875C17.4943 48.5449 18.2731 47.6391 18.9797 46.6781C18.1284 46.8119 17.268 46.8793 16.4063 46.8797V46.875Z" fill="#9D4EDD"/>
</g>
<defs>
<clipPath id="clip0_303_201">
<rect width="75" height="75" fill="white"/>
</clipPath>
</defs>
</svg>
