<svg width="23" height="27" viewBox="0 0 23 27" fill="none" xmlns="http://www.w3.org/2000/svg">
<path d="M19.5551 4.98507C17.404 2.82882 14.5393 1.64288 11.4949 1.64288C5.21094 1.64288 0.0975446 6.75628 0.0975446 13.0402C0.0975446 15.0476 0.621205 17.0087 1.61719 18.7389L0 24.6429L6.04263 23.0565C7.70603 23.9652 9.57991 24.4427 11.4897 24.4427H11.4949C17.7737 24.4427 23 19.3293 23 13.0453C23 10.0009 21.7063 7.14132 19.5551 4.98507ZM11.4949 22.5226C9.7904 22.5226 8.12187 22.0657 6.66897 21.2032L6.325 20.9978L2.74152 21.9373L3.69643 18.4411L3.47054 18.0817C2.52076 16.5723 2.02277 14.8319 2.02277 13.0402C2.02277 7.819 6.27366 3.56811 11.5 3.56811C14.031 3.56811 16.408 4.55382 18.1946 6.34556C19.9813 8.1373 21.0799 10.5143 21.0748 13.0453C21.0748 18.2717 16.7161 22.5226 11.4949 22.5226ZM16.6904 15.4275C16.408 15.2837 15.0065 14.5958 14.7446 14.5034C14.4828 14.4058 14.2929 14.3596 14.1029 14.6471C13.9129 14.9346 13.3688 15.5712 13.1993 15.7663C13.035 15.9563 12.8656 15.9819 12.5833 15.8382C10.9096 15.0014 9.81094 14.3442 8.70714 12.4498C8.41451 11.9467 8.99978 11.9826 9.54397 10.8942C9.63638 10.7043 9.59018 10.54 9.5183 10.3962C9.44643 10.2525 8.87656 8.85092 8.6404 8.28105C8.40938 7.72659 8.17321 7.8036 7.99866 7.79333C7.83438 7.78306 7.64442 7.78306 7.45446 7.78306C7.26451 7.78306 6.95647 7.85494 6.69464 8.1373C6.43281 8.4248 5.69866 9.11275 5.69866 10.5143C5.69866 11.9159 6.72031 13.2712 6.85893 13.4612C7.00268 13.6511 8.86629 16.5261 11.7259 17.7634C13.533 18.5438 14.2415 18.6105 15.1451 18.477C15.6944 18.3949 16.829 17.7891 17.0652 17.1217C17.3013 16.4543 17.3013 15.8844 17.2295 15.7663C17.1627 15.638 16.9728 15.5661 16.6904 15.4275Z" fill="white"/>
</svg>
