<svg width="22" height="27" viewBox="0 0 22 27" fill="none" xmlns="http://www.w3.org/2000/svg">
<g clip-path="url(#clip0_303_57)">
<path d="M18.5843 4.98525C16.54 2.829 13.8175 1.64307 10.9242 1.64307C4.95224 1.64307 0.092702 6.75646 0.092702 13.0404C0.092702 15.0478 0.590365 17.0089 1.5369 18.739L0 24.6431L5.74264 23.0567C7.32346 23.9654 9.10431 24.4428 10.9193 24.4428H10.9242C16.8913 24.4428 21.8582 19.3295 21.8582 13.0455C21.8582 10.0011 20.6286 7.1415 18.5843 4.98525ZM10.9242 22.5228C9.30435 22.5228 7.71866 22.0658 6.33789 21.2033L6.01099 20.998L2.60541 21.9375L3.51292 18.4413L3.29824 18.0819C2.39561 16.5725 1.92235 14.8321 1.92235 13.0404C1.92235 7.81918 5.9622 3.56829 10.9291 3.56829C13.3345 3.56829 15.5935 4.554 17.2914 6.34575C18.9893 8.13749 20.0334 10.5145 20.0285 13.0455C20.0285 18.2719 15.8862 22.5228 10.9242 22.5228ZM15.8618 15.4277C15.5935 15.2839 14.2615 14.596 14.0126 14.5036C13.7638 14.406 13.5833 14.3598 13.4028 14.6473C13.2222 14.9348 12.7051 15.5714 12.544 15.7665C12.3879 15.9565 12.2269 15.9821 11.9586 15.8384C10.368 15.0015 9.32387 14.3444 8.27487 12.45C7.99677 11.9469 8.55298 11.9828 9.07016 10.8944C9.15798 10.7045 9.11407 10.5402 9.04576 10.3964C8.97746 10.2527 8.43588 8.8511 8.21145 8.28124C7.99189 7.72677 7.76745 7.80378 7.60156 7.79351C7.44543 7.78325 7.26491 7.78325 7.08438 7.78325C6.90386 7.78325 6.61112 7.85512 6.36228 8.13749C6.11345 8.42499 5.41575 9.11293 5.41575 10.5145C5.41575 11.9161 6.38668 13.2714 6.51841 13.4614C6.65503 13.6513 8.42612 16.5263 11.1438 17.7636C12.8612 18.544 13.5345 18.6107 14.3932 18.4772C14.9153 18.3951 15.9935 17.7893 16.218 17.1219C16.4424 16.4545 16.4424 15.8846 16.3741 15.7665C16.3107 15.6382 16.1301 15.5663 15.8618 15.4277Z" fill="white"/>
</g>
<defs>
<clipPath id="clip0_303_57">
<path d="M0 13.1429C0 5.88426 5.88426 0 13.1429 0H21.8582V26.2857H13.1429C5.88426 26.2857 0 20.4015 0 13.1429Z" fill="white"/>
</clipPath>
</defs>
</svg>
